<?xml version="1.0" encoding="utf-8"?>
<!-- Generator: Adobe Illustrator 16.0.0, SVG Export Plug-In . SVG Version: 6.00 Build 0)  -->
<!DOCTYPE svg PUBLIC "-//W3C//DTD SVG 1.1//EN" "http://www.w3.org/Graphics/SVG/1.1/DTD/svg11.dtd">
<svg version="1.1" id="Layer_1" xmlns="http://www.w3.org/2000/svg" xmlns:xlink="http://www.w3.org/1999/xlink" x="0px" y="0px"
	 width="66px" height="66px" viewBox="0 0 66 66" enable-background="new 0 0 66 66" xml:space="preserve">
<g>
	<g>
		<g>
			<g>
				<g>
					<g>
						<g>
							<g>
								<path fill="#F7910B" d="M63.333,38.513c0,12.979-11.924,23.5-30.334,23.5c-18.408,0-30.332-10.521-30.332-23.5
									s11.924-32.5,30.332-32.5C51.409,6.013,63.333,25.534,63.333,38.513z"/>
								<path fill="#F7910B" d="M63.333,38.513c0,12.979-11.924,19.5-30.334,19.5c-18.408,0-30.332-6.521-30.332-19.5
									s11.924-34.5,30.332-34.5C51.409,4.013,63.333,25.534,63.333,38.513z"/>
								<path fill="#F9A908" d="M32.999,4.013c18.41,0,30.334,21.521,30.334,34.5s-11.924,19.5-30.334,19.5"/>
								<path fill="#F9A908" d="M63.333,38.513c0,12.979-11.924,19.5-30.334,19.5c-18.408,0-30.332-6.521-30.332-19.5
									s11.924-32.5,30.332-32.5C51.409,6.013,63.333,25.534,63.333,38.513z"/>
								<path fill="#F9C55D" d="M2.667,38.513c0-12.979,11.924-32.5,30.332-32.5"/>
								<path fill="#F7910B" d="M32.999,6.013c18.41,0,30.334,19.521,30.334,32.5s-11.924,23.5-30.334,23.5"/>
								<path fill="#EA7103" d="M32.999,6.013c18.41,0,30.334,19.521,30.334,32.5"/>
								<g>
									<path fill="#F9C55D" d="M28.831,21.595c0,1.221-3.494,0.65-7.805,0.65c-4.312,0-7.807,0.57-7.807-0.65
										s3.494-2.211,7.807-2.211C25.337,19.384,28.831,20.374,28.831,21.595z"/>
									<path fill="#F9A908" d="M52.78,21.595c0,1.221-3.494,0.65-7.807,0.65s-7.805,0.57-7.805-0.65s3.492-2.211,7.805-2.211
										S52.78,20.374,52.78,21.595z"/>
								</g>
								<circle fill="#F7910B" cx="11.333" cy="35.47" r="0.625"/>
								<circle fill="#F7910B" cx="6.833" cy="37.47" r="1.125"/>
								<circle fill="#F7910B" cx="9.833" cy="33.47" r="0.25"/>
								<circle fill="#F7910B" cx="14.396" cy="35.282" r="0.188"/>
								<circle fill="#F9A908" cx="53.583" cy="35.845" r="0.75"/>
								<circle fill="#F9A908" cx="56.083" cy="37.22" r="0.25"/>
								<circle fill="#F9A908" cx="50.771" cy="28.407" r="0.312"/>
								<circle fill="#F9A908" cx="50.271" cy="40.032" r="1.312"/>
								<circle fill="#F9A908" cx="57.458" cy="40.095" r="0.625"/>
								<circle fill="#F7910B" cx="10.333" cy="39.513" r="0.5"/>
								<circle fill="#F7910B" cx="11.084" cy="31.097" r="0.417"/>
								<circle fill="#061C33" cx="5.833" cy="17.345" r="1.125"/>
								<circle fill="#061C33" cx="9.021" cy="13.782" r="0.562"/>
								<circle fill="#061C33" cx="60.208" cy="19.72" r="0.25"/>
								<circle fill="#061C33" cx="59.396" cy="16.782" r="0.812"/>
								<circle fill="#061C33" cx="61.958" cy="17.345" r="0.5"/>
								<circle fill="#061C33" cx="7.021" cy="20.282" r="0.562"/>
							</g>
						</g>
					</g>
				</g>
				<g>
					<g>
						<g>
							<path fill="#037A66" d="M26.592,11.837c0.278,0.914-1.402,0.922-3.304,1.506c-1.9,0.584-3.299,1.52-3.58,0.605
								c-0.277-0.912,1.035-2.127,2.932-2.707C24.545,10.655,26.312,10.925,26.592,11.837z"/>
						</g>
					</g>
					<g>
						<g>
							<path fill="#037A66" d="M39.407,11.837c-0.279,0.914,1.401,0.922,3.305,1.506c1.901,0.584,3.297,1.52,3.58,0.605
								c0.277-0.912-1.036-2.127-2.934-2.707C41.455,10.655,39.688,10.925,39.407,11.837z"/>
						</g>
					</g>
				</g>
			</g>
		</g>
		<path fill="#F7910B" d="M38.252,28.442c0,0.701-2.351,4.023-5.251,4.023c-2.898,0-5.249-3.322-5.249-4.023
			c0-0.703,2.351-0.143,5.249-0.143C35.901,28.3,38.252,27.739,38.252,28.442z"/>
		<path fill="#99144A" d="M27.751,28.3c0-0.701,2.351-1.271,5.25-1.271c2.898,0,5.25,0.57,5.25,1.271
			c0,0.703-2.352,0.143-5.25,0.143C30.102,28.442,27.751,29.003,27.751,28.3z"/>
	</g>
	<path fill="#02598E" d="M32.999,4.013c-18.408,0-30.332,21.521-30.332,34.5s11.924,23.5,30.332,23.5
		c18.41,0,30.334-10.521,30.334-23.5S51.409,4.013,32.999,4.013z M33.001,37.487c-4.947,0-8.959-3.924-8.959-8.766
		c0-4.84,4.012-5.297,8.959-5.297s8.957,0.457,8.957,5.297C41.958,33.563,37.948,37.487,33.001,37.487z"/>
	<path fill="#061C33" d="M32.999,6.845c-17.744,0-29.459,19.994-30.281,33.061c0.822,12.33,12.537,22.107,30.281,22.107
		c17.746,0,29.461-9.777,30.283-22.107C62.46,26.839,50.745,6.845,32.999,6.845z M41.958,31.556c0,4.842-4.01,8.766-8.957,8.766
		s-8.959-3.924-8.959-8.766c0-0.504,0.053-0.949,0.137-1.361c-0.084-0.48-0.137-0.969-0.137-1.473c0-4.84,4.012-5.297,8.959-5.297
		s8.957,0.457,8.957,5.297c0,0.504-0.053,0.992-0.136,1.473C41.905,30.606,41.958,31.052,41.958,31.556z"/>
	<g>
		<g>
			<g>
				<g>
					<g>
						<path fill="#F8FCFF" d="M48.267,21.833c-0.423,0-0.846-0.156-1.168-0.479c-1.412-1.4-3.692-1.391-5.094,0.02
							c-0.639,0.646-1.687,0.652-2.332,0.008c-0.646-0.641-0.651-1.686-0.009-2.332c2.68-2.701,7.06-2.719,9.761-0.037
							c0.646,0.641,0.649,1.684,0.009,2.332C49.111,21.669,48.689,21.831,48.267,21.833z"/>
					</g>
					<g>
						<path fill="#E7E8CD" d="M49.425,19.013c0.646,0.641,0.649,1.684,0.009,2.332c-0.322,0.324-0.744,0.486-1.167,0.488
							c-0.423,0-0.846-0.156-1.168-0.479c-1.412-1.4-3.692-1.391-5.094,0.02c-0.639,0.646-1.687,0.652-2.332,0.008
							c-0.646-0.641-0.651-1.686-0.009-2.332"/>
					</g>
				</g>
			</g>
		</g>
		<g>
			<g>
				<g>
					<g>
						<path fill="#F8FCFF" d="M17.73,21.833c0.424,0,0.845-0.156,1.169-0.479c1.41-1.4,3.693-1.391,5.095,0.02
							c0.64,0.646,1.687,0.652,2.332,0.008c0.646-0.641,0.652-1.686,0.01-2.332c-2.682-2.701-7.062-2.719-9.765-0.037
							c-0.641,0.641-0.646,1.684-0.005,2.332C16.89,21.669,17.309,21.831,17.73,21.833z"/>
					</g>
					<g>
						<path fill="#E7E8CD" d="M16.571,19.013c-0.641,0.641-0.646,1.684-0.005,2.332c0.323,0.324,0.742,0.486,1.164,0.488
							c0.424,0,0.845-0.156,1.169-0.479c1.41-1.4,3.693-1.391,5.095,0.02c0.64,0.646,1.687,0.652,2.332,0.008
							c0.646-0.641,0.652-1.686,0.01-2.332"/>
					</g>
				</g>
			</g>
		</g>
	</g>
	<g>
		<g>
			<polygon fill="#02598E" points="8.542,24.321 8.542,3.987 18.708,14.153 			"/>
			<polygon fill="#061C33" points="7.542,24.321 12.084,14.028 8.542,3.987 18.708,14.153 			"/>
		</g>
		<g>
			<polygon fill="#02598E" points="57.458,24.321 57.458,3.987 47.291,14.153 			"/>
			<polygon fill="#061C33" points="58.458,24.321 53.916,14.028 57.458,3.987 47.291,14.153 			"/>
		</g>
	</g>
	<g>
		<path fill="#02598E" d="M31.5,18.987l-9.251-5.75c0,0,2.002-1.916,4.084-1.416C28.417,12.321,31.5,18.987,31.5,18.987z"/>
		<path fill="#02598E" d="M34.5,18.987l9.249-5.75c0,0-2-1.916-4.084-1.416C37.583,12.321,34.5,18.987,34.5,18.987z"/>
	</g>
	<g>
		<ellipse fill="#02598E" cx="20.874" cy="23.153" rx="5.75" ry="1.125"/>
		<ellipse fill="#02598E" cx="45.125" cy="23.153" rx="5.75" ry="1.125"/>
	</g>
	<g>
		<path fill="#F8FCFF" d="M38.917,50.905c0,3.91-2.648,5.082-5.916,5.082s-5.918-1.172-5.918-5.082c0-3.912,2.65-7.084,5.918-7.084
			S38.917,46.993,38.917,50.905z"/>
		<g>
			<polygon fill="#F8FCFF" points="28.084,49.155 23.084,45.155 14.917,50.655 20.751,49.987 21.417,52.321 23.417,50.321 
				25.084,52.655 25.584,50.487 28.084,52.321 			"/>
			<polygon fill="#F8FCFF" points="37.916,49.155 42.916,45.155 51.083,50.655 45.249,49.987 44.583,52.321 42.583,50.321 
				40.916,52.655 40.416,50.487 37.916,52.321 			"/>
		</g>
	</g>
</g>
</svg>
