<svg id="Layer_1" data-name="Layer 1" xmlns="http://www.w3.org/2000/svg" viewBox="0 0 128 128"><defs><style>.cls-1,.cls-5{fill:none;}.cls-1,.cls-2,.cls-3,.cls-4{stroke:#383f51;stroke-linecap:round;stroke-linejoin:round;stroke-width:2px;}.cls-2{fill:#8b91a8;}.cls-3{fill:#fff;}.cls-4{fill:#aedefc;}</style></defs><title>Spider</title><polyline class="cls-1" points="125 69 106 37 87 51"/><polyline class="cls-1" points="119 90 109 64 88 70"/><polyline class="cls-1" points="3 55 29 34 45 48"/><polyline class="cls-1" points="8 83 25 56 42 62"/><polyline class="cls-1" points="24 101 32 77 47 73"/><polyline class="cls-1" points="101 104 97 82 83 77"/><path class="cls-2" d="M94,64l3,9-5-2v9l-2-2.7a19.73,19.73,0,0,1-5.59,5.2l-.79.47L84,85l-5-2,1,4-5-2v4l-2.77-2.21a29.62,29.62,0,0,1-14.95-2.07L55,87l-3-6-2,7s-2.81-2.81-3-10.22c0-.26,0-.52,0-.78l-.22.55L45,82a26.13,26.13,0,0,1-2.92-10.68C42,70.58,42,69.8,42,69l-3,3,1-6-4,4,2-9c-3,0-6,3-6,3,0-5,3.51-8,7.59-8.75A11.46,11.46,0,0,1,42,55l-4-2,4-2-3-3h5l-2-4,3.79.63a19.22,19.22,0,0,1,2.83-2.13A29.59,29.59,0,0,1,65.84,38h0A20.57,20.57,0,0,1,74,36c5,0,6,1,6,1s-4.56.76-7.05,2.28A4.83,4.83,0,0,0,72,40l4.15.46L81,41l-1.63,1.09a31.54,31.54,0,0,1,10.12,9.35L96,56l-3,1,5,8Z"/><circle class="cls-3" cx="55.5" cy="62.5" r="9.5"/><circle class="cls-4" cx="60.5" cy="62.5" r="4.5"/><circle class="cls-3" cx="78.5" cy="62.5" r="9.5"/><circle class="cls-4" cx="83.5" cy="62.5" r="4.5"/><path class="cls-1" d="M70,78a4.07,4.07,0,0,0-2.62-1A3.24,3.24,0,0,0,65,78"/><rect class="cls-5" width="128" height="128"/></svg>